<?xml version="1.0" encoding="UTF-8" standalone="no"?>
<!-- Created with Inkscape (http://www.inkscape.org/) -->
<svg
   xmlns:dc="http://purl.org/dc/elements/1.1/"
   xmlns:cc="http://creativecommons.org/ns#"
   xmlns:rdf="http://www.w3.org/1999/02/22-rdf-syntax-ns#"
   xmlns:svg="http://www.w3.org/2000/svg"
   xmlns="http://www.w3.org/2000/svg"
   xmlns:sodipodi="http://sodipodi.sourceforge.net/DTD/sodipodi-0.dtd"
   xmlns:inkscape="http://www.inkscape.org/namespaces/inkscape"
   width="250"
   height="250"
   id="svg2"
   sodipodi:version="0.32"
   inkscape:version="0.46"
   version="1.0"
   sodipodi:docname="icon.svg"
   inkscape:output_extension="org.inkscape.output.svg.inkscape"
   inkscape:export-filename="/home/brandon/projects/buswatch/res/drawable-hdpi/icon.png"
   inkscape:export-xdpi="204.54546"
   inkscape:export-ydpi="204.54546">
  <defs
     id="defs4">
    <inkscape:perspective
       sodipodi:type="inkscape:persp3d"
       inkscape:vp_x="0 : 526.18109 : 1"
       inkscape:vp_y="0 : 1000 : 0"
       inkscape:vp_z="744.09448 : 526.18109 : 1"
       inkscape:persp3d-origin="372.04724 : 350.78739 : 1"
       id="perspective10" />
    <inkscape:perspective
       id="perspective3384"
       inkscape:persp3d-origin="372.04724 : 350.78739 : 1"
       inkscape:vp_z="744.09448 : 526.18109 : 1"
       inkscape:vp_y="0 : 1000 : 0"
       inkscape:vp_x="0 : 526.18109 : 1"
       sodipodi:type="inkscape:persp3d" />
  </defs>
  <sodipodi:namedview
     id="base"
     pagecolor="#ffffff"
     bordercolor="#666666"
     borderopacity="1.0"
     gridtolerance="10000"
     guidetolerance="10"
     objecttolerance="10"
     inkscape:pageopacity="0.0"
     inkscape:pageshadow="2"
     inkscape:zoom="2.8"
     inkscape:cx="101.03937"
     inkscape:cy="130.29387"
     inkscape:document-units="px"
     inkscape:current-layer="layer1"
     showgrid="false"
     inkscape:window-width="1680"
     inkscape:window-height="975"
     inkscape:window-x="0"
     inkscape:window-y="25" />
  <metadata
     id="metadata7">
    <rdf:RDF>
      <cc:Work
         rdf:about="">
        <dc:format>image/svg+xml</dc:format>
        <dc:type
           rdf:resource="http://purl.org/dc/dcmitype/StillImage" />
      </cc:Work>
    </rdf:RDF>
  </metadata>
  <g
     inkscape:label="Layer 1"
     inkscape:groupmode="layer"
     id="layer1">
    <path
       sodipodi:type="arc"
       style="opacity:1;fill:#0e12a4;fill-opacity:1;fill-rule:evenodd;stroke:#000000;stroke-width:7.45526743000000014;stroke-linecap:round;stroke-miterlimit:4;stroke-dasharray:none;stroke-opacity:1"
       id="path2383"
       sodipodi:cx="114.14724"
       sodipodi:cy="123.73093"
       sodipodi:rx="77.276672"
       sodipodi:ry="79.296974"
       d="M 191.42391,123.73093 A 77.276672,79.296974 0 1 1 36.870567,123.73093 A 77.276672,79.296974 0 1 1 191.42391,123.73093 z"
       transform="matrix(1.3587542,0,0,1.3241363,-30.098038,-38.836613)" />
    <path
       style="fill:#7a7a7a;fill-rule:evenodd;stroke:#7a7a7a;stroke-width:7;stroke-linecap:round;stroke-linejoin:miter;stroke-miterlimit:4;stroke-dasharray:none;stroke-opacity:1;fill-opacity:1"
       d="M 125.25892,56.050714 L 125.25892,31.301974"
       id="path3343" />
    <path
       style="fill:none;fill-rule:evenodd;stroke:#7a7a7a;stroke-width:7;stroke-linecap:round;stroke-linejoin:miter;stroke-miterlimit:4;stroke-dasharray:none;stroke-opacity:1"
       d="M 193.44421,125.24616 L 218.69803,125.24616"
       id="path3345" />
    <path
       style="fill:none;fill-rule:evenodd;stroke:#7a7a7a;stroke-width:7;stroke-linecap:round;stroke-linejoin:miter;stroke-miterlimit:4;stroke-dasharray:none;stroke-opacity:1"
       d="M 31.314724,123.22585 L 56.568544,123.22585"
       id="path3347" />
    <path
       style="fill:none;fill-rule:evenodd;stroke:#7a7a7a;stroke-width:7;stroke-linecap:round;stroke-linejoin:miter;stroke-miterlimit:4;stroke-dasharray:none;stroke-opacity:1"
       d="M 124.24876,218.93781 L 124.24876,194.18907"
       id="path3351" />
    <path
       style="fill:none;fill-rule:evenodd;stroke:#7a7a7a;stroke-width:7;stroke-linecap:round;stroke-linejoin:miter;stroke-miterlimit:4;stroke-dasharray:none;stroke-opacity:1"
       d="M 78.286822,43.928881 L 88.534526,61.678425"
       id="path3361" />
    <path
       style="fill:none;fill-rule:evenodd;stroke:#7a7a7a;stroke-width:7;stroke-linecap:round;stroke-linejoin:miter;stroke-miterlimit:4;stroke-dasharray:none;stroke-opacity:1"
       d="M 161.55132,188.09222 L 171.79902,205.84176"
       id="path3363" />
    <path
       style="fill:none;fill-rule:evenodd;stroke:#7a7a7a;stroke-width:7;stroke-linecap:round;stroke-linejoin:miter;stroke-miterlimit:4;stroke-dasharray:none;stroke-opacity:1"
       d="M 205.21661,78.292742 L 187.46707,88.540442"
       id="path3365" />
    <path
       style="fill:none;fill-rule:evenodd;stroke:#7a7a7a;stroke-width:7;stroke-linecap:round;stroke-linejoin:miter;stroke-miterlimit:4;stroke-dasharray:none;stroke-opacity:1"
       d="M 62.412856,160.52841 L 44.663316,170.77611"
       id="path3367" />
    <path
       style="fill:none;fill-rule:evenodd;stroke:#7a7a7a;stroke-width:7;stroke-linecap:round;stroke-linejoin:miter;stroke-miterlimit:4;stroke-dasharray:none;stroke-opacity:1"
       d="M 171.79903,45.155636 L 161.55133,62.905174"
       id="path3369" />
    <path
       style="fill:none;fill-rule:evenodd;stroke:#7a7a7a;stroke-width:7;stroke-linecap:round;stroke-linejoin:miter;stroke-miterlimit:4;stroke-dasharray:none;stroke-opacity:1"
       d="M 89.471585,188.09222 L 79.223885,205.84176"
       id="path3371" />
    <path
       style="fill:none;fill-rule:evenodd;stroke:#7a7a7a;stroke-width:7;stroke-linecap:round;stroke-linejoin:miter;stroke-miterlimit:4;stroke-dasharray:none;stroke-opacity:1"
       d="M 206.86467,171.78627 L 189.11513,161.53857"
       id="path3373" />
    <path
       style="fill:none;fill-rule:evenodd;stroke:#7a7a7a;stroke-width:7;stroke-linecap:round;stroke-linejoin:miter;stroke-miterlimit:4;stroke-dasharray:none;stroke-opacity:1"
       d="M 62.917933,88.448682 L 45.168393,78.200982"
       id="path3375" />
    <g
       id="g3402"
       transform="matrix(1.4641015,0,0,1.4641015,-54.307275,-63.222522)">
      <g
         id="g3429"
         transform="matrix(0.9028892,0,0,0.8575121,11.878734,18.173677)">
        <path
           style="fill:#ffffff;fill-opacity:1;fill-rule:evenodd;stroke:#000000;stroke-width:0;stroke-linecap:butt;stroke-linejoin:miter;stroke-miterlimit:4;stroke-dasharray:none;stroke-opacity:1"
           d="M 84.821428,161.60714 L 84.642857,122.67857 L 88.928572,91.964285 C 88.928572,91.964285 90.32277,87.560842 99.107143,84.642857 C 112.67821,80.134834 129.8884,80.416035 143.57143,84.285714 C 151.90661,86.642975 153.57143,89.464285 155.35714,92.5 C 157.14286,95.535714 159.82143,123.21429 159.82143,123.21429 L 160,161.60715 L 153.92857,161.60714 L 153.75,169.28571 C 153.75,169.28571 153.21429,173.39286 148.75,173.39286 C 144.28571,173.39286 142.5,171.78571 142.5,168.92857 C 142.5,166.07143 142.5,161.60714 142.5,161.60714 L 102.14286,161.60714 L 102.14286,169.10715 C 102.14286,169.10715 102.32143,174.10714 96.25,173.75 C 90.178571,173.39286 90.892857,169.10714 90.892857,169.10714 L 90.714286,161.60714 L 84.821428,161.60714 z"
           id="path3390"
           sodipodi:nodetypes="cccsssccccsscccsccc" />
        <path
           style="fill:#0e12a4;fill-opacity:1;fill-rule:evenodd;stroke:#000000;stroke-width:0;stroke-linecap:butt;stroke-linejoin:miter;stroke-miterlimit:4;stroke-dasharray:none;stroke-opacity:1"
           d="M 91.071429,121.33929 L 94.375,100.17857 C 94.375,100.17857 94.107143,97.232142 97.589286,97.232142 C 101.07143,97.232142 146.875,97.142857 146.875,97.142857 C 146.875,97.142857 149.375,96.964285 149.91071,100.17857 C 150.44643,103.39286 153.39286,122.67857 153.39286,122.67857 C 153.39286,122.67857 153.39286,125.44643 151.51786,125.44643 C 149.64286,125.44643 93.214286,125.26786 93.214286,125.26786 C 93.214286,125.26786 90.267857,125.35714 91.071429,121.33929 z"
           id="path3392" />
        <path
           style="fill:#0e12a4;fill-opacity:1;fill-rule:evenodd;stroke:#000000;stroke-width:0;stroke-linecap:butt;stroke-linejoin:miter;stroke-miterlimit:4;stroke-dasharray:none;stroke-opacity:1"
           d="M 106.25,87.946428 C 106.25,87.946428 134.13123,87.954993 137.94643,88.035713 C 141.19583,88.104463 140.89286,93.124999 138.03571,93.125 C 131.33869,93.125 107.77305,93.02509 106.25,93.124999 C 102.92026,93.343423 102.67857,87.767856 106.25,87.946428 z"
           id="path3394"
           sodipodi:nodetypes="csssc" />
        <path
           sodipodi:type="arc"
           style="opacity:1;fill:#0e12a4;fill-opacity:1;fill-rule:evenodd;stroke:#000000;stroke-width:0;stroke-linecap:round;stroke-miterlimit:4;stroke-dasharray:none;stroke-opacity:1"
           id="path3398"
           sodipodi:cx="97.366074"
           sodipodi:cy="144.0625"
           sodipodi:rx="5.3125"
           sodipodi:ry="5.2232146"
           d="M 102.67857,144.0625 A 5.3125,5.2232146 0 1 1 92.053574,144.0625 A 5.3125,5.2232146 0 1 1 102.67857,144.0625 z"
           transform="translate(-0.8928571,0.2678571)" />
        <path
           sodipodi:type="arc"
           style="opacity:1;fill:#0e12a4;fill-opacity:1;fill-rule:evenodd;stroke:#000000;stroke-width:0;stroke-linecap:round;stroke-miterlimit:4;stroke-dasharray:none;stroke-opacity:1"
           id="path3400"
           sodipodi:cx="97.366074"
           sodipodi:cy="144.0625"
           sodipodi:rx="5.3125"
           sodipodi:ry="5.2232146"
           d="M 102.67857,144.0625 A 5.3125,5.2232146 0 1 1 92.053574,144.0625 A 5.3125,5.2232146 0 1 1 102.67857,144.0625 z"
           transform="translate(50.758927,0.2232141)" />
      </g>
    </g>
  </g>
</svg>
